# xmcd
#
# Track frame offsets:
#  182
#  14900
#  25400
#  40330
#  63202
#  81292
#  93352
#  109677
#  121725
#  135670
#  150557
#  167492
#
# Disc length: 2422 seconds
#
# Revision: 0
# Processed by: cddbd v1.5.1PL2 Copyright (c) Steve Scherf et al.
# Submitted via: Collectorz.com_Music_Collector 6.9
#
DISCID=9309740c
DTITLE=Ball, Marcia, Angela Strehli and Lou Ann Barton - Dreams Come True
DYEAR=1990
DGENRE=Blues
TTITLE0=A Fool In Love
TTITLE1=Good Rockin' Daddy
TTITLE2=It Hurts To Be In Love
TTITLE3=Love, Sweet Love
TTITLE4=Gonna Make It
TTITLE5=You Can If You Think You Can
TTITLE6=I Idolize You
TTITLE7=Dreams Come True
TTITLE8=Bad Thing
TTITLE9=Turn the Lock On Love
TTITLE10=Something's Got a Hold On Me
TTITLE11=Snake Dance
EXTD=
EXTT0=
EXTT1=
EXTT2=
EXTT3=
EXTT4=
EXTT5=
EXTT6=
EXTT7=
EXTT8=
EXTT9=
EXTT10=
EXTT11=
PLAYORDER=
